# Blender v2.78 (sub 0) OBJ File: 'Grasstest.blend'
# www.blender.org
mtllib Bush2.mtl
o Plane.005_Plane.006
v 1.000000 1.832490 -0.000000
v 1.000000 -0.167510 -0.000000
v -1.000000 1.832490 0.000000
v -1.000000 -0.167510 0.000000
v 1.000000 1.832490 -0.000000
v 1.000000 -0.167510 -0.000000
v -1.000000 1.832490 0.000000
v -1.000000 -0.167510 0.000000
v -0.000000 1.832490 1.000000
v 0.000000 -0.167510 1.000000
v -0.000000 1.832490 -1.000000
v 0.000000 -0.167510 -1.000000
v -0.000000 1.832490 1.000000
v 0.000000 -0.167510 1.000000
v -0.000000 1.832490 -1.000000
v 0.000000 -0.167510 -1.000000
vt 0.0028 0.9972
vt 0.0028 0.7035
vt 0.2965 0.7035
vt 0.2965 0.9972
vt 0.0028 0.9972
vt 0.2965 0.9972
vt 0.2965 0.7035
vt 0.0028 0.7035
vt 0.0028 0.9972
vt 0.0028 0.7035
vt 0.2965 0.7035
vt 0.2965 0.9972
vt 0.0028 0.9972
vt 0.2965 0.9972
vt 0.2965 0.7035
vt 0.0028 0.7035
vn -0.0000 -0.0000 -1.0000
vn 0.0000 0.0000 1.0000
vn 1.0000 0.0000 0.0000
vn -1.0000 -0.0000 0.0000
usemtl Material.002
s off
f 1/1/1 2/2/1 4/3/1 3/4/1
f 5/5/2 7/6/2 8/7/2 6/8/2
f 9/9/3 10/10/3 12/11/3 11/12/3
f 13/13/4 15/14/4 16/15/4 14/16/4
