# Blender v2.78 (sub 0) OBJ File: 'Grasstest.blend'
# www.blender.org
mtllib Leaf1.mtl
o Plane.017_Plane.018
v -0.267183 0.660520 0.696175
v -0.281719 -0.354055 0.456138
v -0.297443 0.779178 0.196469
v -0.311979 -0.235397 -0.043568
v -0.267183 0.660520 0.696175
v -0.281719 -0.354055 0.456138
v -0.297443 0.779178 0.196469
v -0.311979 -0.235397 -0.043568
v -0.339383 0.804080 0.348193
v -0.306742 -0.232674 0.454344
v -0.318515 0.752369 -0.163267
v -0.285874 -0.284384 -0.057116
v -0.339383 0.804080 0.348193
v -0.306742 -0.232674 0.454344
v -0.318515 0.752369 -0.163267
v -0.285874 -0.284384 -0.057116
vt 0.2978 0.6251
vt 0.2978 0.4688
vt 0.3749 0.4688
vt 0.3749 0.6251
vt 0.2978 0.6251
vt 0.3749 0.6251
vt 0.3749 0.4688
vt 0.2978 0.4688
vt 0.1465 0.6796
vt 0.1465 0.4438
vt 0.2629 0.4438
vt 0.2629 0.6796
vt 0.1465 0.6796
vt 0.2629 0.6796
vt 0.2629 0.4438
vt 0.1465 0.4438
vn 0.9982 0.0000 -0.0604
vn -0.9982 -0.0000 0.0604
vn 0.9987 0.0352 0.0372
vn -0.9987 -0.0352 -0.0372
usemtl Bushes
s off
f 1/1/1 2/2/1 4/3/1 3/4/1
f 5/5/2 7/6/2 8/7/2 6/8/2
f 9/9/3 10/10/3 12/11/3 11/12/3
f 13/13/4 15/14/4 16/15/4 14/16/4
