# Blender v2.78 (sub 0) OBJ File: 'Grasstest.blend'
# www.blender.org
mtllib Plant2.mtl
o Plane.010_Plane.011
v 3.257060 1.824760 -6.082223
v 3.257061 -0.175240 -6.082223
v 2.270201 1.824760 -6.082223
v 2.270201 -0.175240 -6.082223
vt 0.4835 0.9980
vt 0.4835 0.6520
vt 0.6543 0.6520
vt 0.6543 0.9980
vn 0.0000 0.0000 -1.0000
usemtl Bushes
s off
f 1/1/1 2/2/1 4/3/1 3/4/1
o Plane.009_Plane.010
v 0.493429 1.840943 -0.000000
v 0.493430 -0.159057 -0.000000
v -0.493430 1.840943 0.000000
v -0.493429 -0.159057 0.000000
v 0.493429 1.840943 -0.000000
v 0.493430 -0.159057 -0.000000
v -0.493430 1.840943 0.000000
v -0.493429 -0.159057 0.000000
v -0.000000 1.840943 0.493430
v 0.000000 -0.159057 0.493430
v -0.000000 1.840943 -0.493430
v 0.000000 -0.159057 -0.493430
v -0.000000 1.840943 0.493430
v 0.000000 -0.159057 0.493430
v -0.000000 1.840943 -0.493430
v 0.000000 -0.159057 -0.493430
vt 0.4835 0.9980
vt 0.4835 0.6520
vt 0.6543 0.6520
vt 0.6543 0.9980
vt 0.4835 0.9980
vt 0.6543 0.9980
vt 0.6543 0.6520
vt 0.4835 0.6520
vt 0.4835 0.9980
vt 0.4835 0.6520
vt 0.6543 0.6520
vt 0.6543 0.9980
vt 0.4835 0.9980
vt 0.6543 0.9980
vt 0.6543 0.6520
vt 0.4835 0.6520
vn -0.0000 -0.0000 -1.0000
vn 0.0000 0.0000 1.0000
vn 1.0000 0.0000 0.0000
vn -1.0000 -0.0000 0.0000
usemtl Bushes
s off
f 5/5/2 6/6/2 8/7/2 7/8/2
f 9/9/3 11/10/3 12/11/3 10/12/3
f 13/13/4 14/14/4 16/15/4 15/16/4
f 17/17/5 19/18/5 20/19/5 18/20/5
o Plane.008_Plane.009
v 0.677453 1.713898 -6.082223
v 0.677453 -0.286102 -6.082223
v -0.677453 1.713898 -6.082223
v -0.677453 -0.286102 -6.082223
vt 0.2850 0.9751
vt 0.2850 0.6818
vt 0.4837 0.6818
vt 0.4837 0.9751
vn 0.0000 0.0000 -1.0000
usemtl Bushes
s off
f 21/21/6 22/22/6 24/23/6 23/24/6
